# xmcd CD database file
#
# Track frame offsets:
#	150
#	17485
#	35885
#	54035
#	72515
#	95622
#	114692
#	129400
#	154522
#	174690
#
# Disc length: 2996 seconds
#
# Revision: 0
# Processed by: cddbd v1.5.1PL0 Copyright (c) Steve Scherf et al.
# Submitted via: CDex 1.51
#
DISCID=810bb20a
DTITLE=Impellitteri - The Future Is Black Disc 1
DYEAR=1994
DGENRE=Heavy Metal
TTITLE0=Overture
TTITLE1=Visual Prison
TTITLE2=The King Is Rising
TTITLE3=The Future Is Black
TTITLE4=Fly Away
TTITLE5=Something's Wrong With The World Today
TTITLE6=Hungry Days
TTITLE7=Screaming Symphony
TTITLE8=Victim Of The System
TTITLE9=Hold The Line
EXTD=YEAR: 1994
EXTT0=
EXTT1=
EXTT2=
EXTT3=
EXTT4=
EXTT5=
EXTT6=
EXTT7=
EXTT8=
EXTT9=
PLAYORDER=
